<svg width="1200" height="900" viewBox="0 0 1200 900" fill="none" xmlns="http://www.w3.org/2000/svg">
  <rect width="1200" height="900" fill="#EDEFF8"/>
  <rect x="180" y="70" width="840" height="760" rx="28" fill="white" stroke="#D8DDF1" stroke-width="10"/>
  <rect x="180" y="70" width="250" height="760" rx="28" fill="#0F172A"/>
  <rect x="230" y="130" width="150" height="150" rx="75" fill="#1F2937" stroke="#6366F1" stroke-width="10"/>
  <rect x="220" y="330" width="120" height="18" rx="9" fill="#6366F1" fill-opacity="0.35"/>
  <rect x="220" y="366" width="160" height="12" rx="6" fill="#3D4763"/>
  <rect x="220" y="396" width="150" height="12" rx="6" fill="#3D4763"/>
  <rect x="220" y="460" width="120" height="18" rx="9" fill="#6366F1" fill-opacity="0.35"/>
  <rect x="220" y="498" width="140" height="12" rx="6" fill="#3D4763"/>
  <rect x="220" y="526" width="120" height="12" rx="6" fill="#3D4763"/>
  <rect x="500" y="130" width="280" height="28" rx="14" fill="#111827"/>
  <rect x="500" y="176" width="180" height="14" rx="7" fill="#667085"/>
  <rect x="500" y="230" width="150" height="18" rx="9" fill="#6366F1" fill-opacity="0.18"/>
  <rect x="500" y="270" width="410" height="12" rx="6" fill="#D8DDF1"/>
  <rect x="500" y="294" width="450" height="12" rx="6" fill="#D8DDF1"/>
  <rect x="500" y="318" width="390" height="12" rx="6" fill="#D8DDF1"/>
  <rect x="500" y="386" width="170" height="18" rx="9" fill="#6366F1" fill-opacity="0.18"/>
  <rect x="500" y="426" width="440" height="12" rx="6" fill="#D8DDF1"/>
  <rect x="500" y="450" width="390" height="12" rx="6" fill="#D8DDF1"/>
  <rect x="500" y="474" width="470" height="12" rx="6" fill="#D8DDF1"/>
  <rect x="500" y="542" width="160" height="18" rx="9" fill="#6366F1" fill-opacity="0.18"/>
  <rect x="500" y="584" width="220" height="16" rx="8" fill="#CBD4F6"/>
  <rect x="736" y="584" width="180" height="16" rx="8" fill="#E1E6F7"/>
  <rect x="500" y="618" width="200" height="16" rx="8" fill="#CBD4F6"/>
  <rect x="714" y="618" width="160" height="16" rx="8" fill="#E1E6F7"/>
</svg>
